<svg version="1.1" id="Layer_1" xmlns="http://www.w3.org/2000/svg" xmlns:xlink="http://www.w3.org/1999/xlink" x="0px" y="0px"
	 width="100%" viewBox="0 0 500 242" enable-background="new 0 0 500 242" xml:space="preserve">
<path fill="#FFFFFF" opacity="1.000000" stroke="none" 
	d="
M471.000000,243.000000 
	C314.052734,243.000000 157.605438,243.000000 1.079084,243.000000 
	C1.079084,162.413300 1.079084,81.826500 1.079084,1.119847 
	C167.666611,1.119847 334.333282,1.119847 500.994934,1.119847 
	C500.994934,81.727798 500.994934,162.363892 500.992371,243.000000 
	C491.159882,243.000000 481.329956,243.000000 471.000000,243.000000 
M83.337563,133.615585 
	C87.028954,136.843735 90.783989,137.107117 94.847595,134.164886 
	C95.936340,133.376572 97.516151,133.266495 99.791054,132.964584 
	C102.541290,132.972427 105.303185,133.138596 108.038017,132.937256 
	C110.169144,132.780380 112.117790,132.080200 110.839828,128.971649 
	C110.937157,125.942497 111.034492,122.913353 110.776459,119.271698 
	C107.519806,117.846672 104.386650,115.868401 100.981567,115.108337 
	C93.170448,113.364784 85.226730,112.215302 76.893486,110.216988 
	C75.327202,110.261490 72.737190,107.742798 71.987434,112.018257 
	C70.242874,112.345825 68.503052,112.922638 66.752899,112.955894 
	C60.631310,113.072220 54.482567,113.318298 48.392418,112.865578 
	C45.398254,112.643005 42.514183,110.981964 39.571800,109.997269 
	C38.537430,109.651100 37.496040,109.233131 36.426506,109.100220 
	C30.560108,108.371178 25.503075,110.597710 20.744516,113.662415 
	C16.649780,116.299599 14.411907,125.118546 17.151678,129.057465 
	C18.034279,130.326370 20.400293,130.563477 22.466194,131.806915 
	C24.125353,132.289627 25.784512,132.772339 27.542824,133.335770 
	C27.542824,133.335770 27.606632,133.447403 27.623480,134.219482 
	C31.829805,137.364624 35.675907,136.818954 40.118031,133.083908 
	C54.365192,133.074234 68.612350,133.064575 83.337563,133.615585 
M360.811951,143.468140 
	C363.817993,130.126877 366.824066,116.785622 369.884430,103.203407 
	C367.040344,103.203407 364.737915,103.203407 362.034607,103.203407 
	C359.927490,112.718491 357.816711,122.250183 355.705933,131.781876 
	C355.405823,131.788559 355.105743,131.795242 354.805634,131.801941 
	C352.274597,122.259125 349.743591,112.716316 347.224792,103.219673 
	C344.682861,103.219673 342.546356,103.219673 340.211029,103.219673 
	C337.718079,112.834297 335.248688,122.358093 332.779297,131.881897 
	C332.484406,131.881088 332.189514,131.880295 331.894592,131.879486 
	C329.814728,122.383102 327.734863,112.886719 325.657043,103.399780 
	C322.847351,103.399780 320.307007,103.399780 317.443726,103.399780 
	C320.681366,117.499489 323.829529,131.209427 326.932831,144.724091 
	C330.330353,144.724091 333.254242,144.724091 336.262299,144.724091 
	C338.599945,135.794601 340.873718,127.109093 343.485687,117.131714 
	C346.273773,127.276489 348.685974,136.053604 351.225861,145.295212 
	C354.408173,144.947891 357.471008,144.613632 360.811951,143.468140 
M131.606598,133.719559 
	C136.242569,146.346161 147.747391,149.453995 158.141968,140.595428 
	C158.429581,142.117630 158.688309,143.486969 158.947800,144.860413 
	C161.448456,144.860413 163.753784,144.860413 166.083557,144.860413 
	C166.083557,137.167892 166.083557,129.638214 166.083557,122.262932 
	C159.945755,122.262932 154.195572,122.262932 148.585480,122.262932 
	C148.585480,124.521210 148.585480,126.429573 148.585480,128.718414 
	C151.838364,128.718414 154.775360,128.718414 157.856659,128.718414 
	C158.505768,133.085724 157.716278,136.392960 153.516159,137.892853 
	C146.851822,140.272751 140.751251,137.063339 139.489792,130.107376 
	C138.819214,126.409576 138.776016,122.421684 139.363480,118.709351 
	C140.530151,111.337067 147.571136,107.560486 154.470673,110.464195 
	C156.613495,111.366020 158.293564,113.367393 160.336533,114.984970 
	C162.188019,113.817139 164.101608,112.610130 165.929688,111.457054 
	C163.737778,104.151451 154.345474,101.770012 146.319366,102.850380 
	C138.367325,103.920784 132.282364,109.066635 131.159424,117.143852 
	C130.440811,122.312714 131.200150,127.687050 131.606598,133.719559 
M257.955811,130.496124 
	C257.955811,135.256546 257.955811,140.016968 257.955811,144.917664 
	C264.304321,144.917664 270.117279,145.203918 275.891846,144.855042 
	C286.286438,144.227051 292.471252,138.406128 293.670685,128.099030 
	C294.066711,124.696007 293.759888,121.113853 293.181488,117.714485 
	C291.868805,109.999634 287.142853,105.010712 279.430359,103.963966 
	C272.451416,103.016762 265.327606,103.136711 257.955811,102.770615 
	C257.955811,112.249161 257.955811,120.873055 257.955811,130.496124 
M214.873322,137.159012 
	C214.014008,139.641571 213.154694,142.124115 212.210037,144.853210 
	C215.178589,144.853210 217.810043,144.853210 220.122467,144.853210 
	C223.449158,141.952682 220.475266,134.897079 228.077072,135.129471 
	C235.392899,135.353119 242.990952,133.917847 242.516525,144.851379 
	C245.842621,144.851379 248.471481,144.851379 251.627380,144.851379 
	C247.137299,131.863129 242.503189,119.258446 238.498535,106.456841 
	C237.020523,101.732140 233.819748,103.456795 231.001343,103.056480 
	C227.996124,102.629631 226.232483,103.434204 225.192734,106.714020 
	C222.034012,116.677994 218.468399,126.512985 214.873322,137.159012 
M458.391663,110.802193 
	C454.527832,122.059364 450.664001,133.316544 446.708496,144.840759 
	C449.717102,144.840759 452.320953,144.840759 454.848267,144.840759 
	C459.078217,135.168350 459.088745,135.507797 470.081848,135.166382 
	C477.592499,134.933121 474.697571,141.944641 477.782013,144.714691 
	C480.405853,144.714691 483.111511,144.714691 486.099945,144.714691 
	C481.223816,130.626846 476.472504,116.899590 471.771759,103.318420 
	C467.967377,103.318420 464.549835,103.318420 461.036591,103.318420 
	C460.225555,105.703064 459.479919,107.895294 458.391663,110.802193 
M378.795959,125.106522 
	C376.536163,131.611435 374.276367,138.116348 371.958527,144.788269 
	C375.099976,144.788269 377.718140,144.788269 380.246094,144.788269 
	C383.872681,135.277191 383.872681,135.277206 394.054291,135.284637 
	C394.720734,135.285126 395.402161,135.375793 396.050995,135.268890 
	C398.669006,134.837646 399.856262,136.058121 400.683319,138.487534 
	C403.187134,145.841995 403.280640,145.810165 411.245453,144.418579 
	C406.464966,130.608185 401.701416,116.846786 396.977112,103.198746 
	C393.215424,103.198746 389.900360,103.198746 386.344879,103.198746 
	C383.886292,110.273170 381.441956,117.306587 378.795959,125.106522 
M191.440338,103.068207 
	C186.926575,102.079041 185.190979,104.363731 183.885315,108.450325 
	C180.014923,120.564224 175.693649,132.534073 171.463440,144.807556 
	C174.635818,144.807556 177.235291,144.807556 179.751465,144.807556 
	C183.515305,135.276932 183.515305,135.276947 193.546768,135.282166 
	C194.212433,135.282516 194.888748,135.359360 195.541870,135.268890 
	C198.112762,134.912872 199.325577,135.949860 200.158569,138.505524 
	C202.465942,145.584579 202.614487,145.536163 210.830200,144.645187 
	C206.301361,131.589844 201.892975,118.551834 197.123352,105.647339 
	C196.651199,104.369888 193.971375,103.908409 191.440338,103.068207 
M425.834503,124.494156 
	C425.834503,117.407074 425.834503,110.320000 425.834503,103.273941 
	C422.707550,103.273941 420.265472,103.273941 417.594543,103.273941 
	C417.594543,117.216820 417.594543,130.932144 417.594543,144.664001 
	C426.704956,144.664001 435.559387,144.664001 444.374207,144.664001 
	C444.374207,142.353806 444.374207,140.415161 444.374207,137.946915 
	C438.109253,137.946915 432.062317,137.946915 425.834473,137.946915 
	C425.834473,133.440063 425.834473,129.466034 425.834503,124.494156 
M306.481415,103.081001 
	C305.246124,103.872200 302.948242,104.645103 302.934265,105.457321 
	C302.709412,118.512695 302.775513,131.573074 302.775513,144.679321 
	C305.755280,144.679321 308.287048,144.679321 310.982727,144.679321 
	C310.982727,131.590836 310.888000,118.824501 311.052155,106.061493 
	C311.091095,103.032646 309.622620,102.857216 306.481415,103.081001 
z"/>
<path fill="#EBE239" opacity="1.000000" stroke="none" 
	d="
M22.087687,131.272598 
	C20.400293,130.563477 18.034279,130.326370 17.151678,129.057465 
	C14.411907,125.118546 16.649780,116.299599 20.744516,113.662415 
	C25.503075,110.597710 30.560108,108.371178 36.426506,109.100220 
	C37.496040,109.233131 38.537430,109.651100 39.571800,109.997269 
	C42.514183,110.981964 45.398254,112.643005 48.392418,112.865578 
	C54.482567,113.318298 60.631310,113.072220 66.752899,112.955894 
	C68.503052,112.922638 70.242874,112.345825 72.770050,111.847473 
	C74.814064,111.392670 76.075447,111.108658 77.336838,110.824646 
	C85.226730,112.215302 93.170448,113.364784 100.981567,115.108337 
	C104.386650,115.868401 107.519806,117.846672 110.708672,119.727257 
	C109.707809,120.466782 108.774742,120.750755 107.570282,120.909584 
	C106.502220,120.838707 105.705536,120.892975 104.596878,120.963531 
	C103.799980,121.480751 103.315063,121.981682 102.830154,122.482620 
	C103.601517,122.603241 104.372887,122.723862 105.449081,122.870071 
	C106.154335,122.962105 106.554756,123.028549 107.017395,123.428452 
	C107.948013,124.549408 108.816422,125.336891 110.169968,126.564323 
	C107.992867,126.680344 106.586174,126.755302 105.179489,126.830269 
	C105.106369,127.283142 105.033249,127.736015 104.960136,128.188889 
	C106.695229,128.565109 108.430328,128.941330 110.165421,129.317551 
	C112.117790,132.080200 110.169144,132.780380 108.038017,132.937256 
	C105.303185,133.138596 102.541290,132.972427 99.338753,132.482864 
	C98.441170,129.041290 97.995880,126.081429 97.878021,123.080460 
	C98.176216,121.966759 98.146996,120.894173 98.117783,119.821594 
	C97.304024,120.132805 96.490273,120.444023 95.446884,120.644539 
	C95.142914,120.381020 95.068573,120.228188 94.994644,119.761414 
	C94.895668,118.901268 94.796288,118.355064 94.523224,116.854195 
	C94.145584,118.351799 94.007469,118.899513 93.540070,119.338089 
	C91.609123,118.536140 90.007454,117.843323 87.988342,117.096474 
	C83.936417,116.988487 80.961395,117.954002 79.821869,122.033707 
	C79.801109,122.080200 79.916290,122.060127 80.441696,122.070251 
	C81.125038,122.125031 81.398163,122.149612 81.497375,122.544952 
	C80.868408,125.918854 80.413368,128.921982 79.493408,131.947464 
	C66.756683,131.959198 54.484890,131.948608 42.214836,131.506027 
	C41.802288,128.509583 41.873547,125.733986 40.869919,123.425751 
	C38.939251,118.985420 34.870918,117.973969 28.095440,118.942894 
	C23.512930,119.598213 24.330797,123.114891 23.649750,125.974213 
	C23.223715,127.762886 22.614634,129.507965 22.087687,131.272598 
M101.324219,129.555344 
	C101.823662,129.736298 102.323105,129.917236 102.822556,130.098175 
	C102.929192,129.539032 103.035828,128.979889 103.142456,128.420746 
	C102.619736,128.631805 102.097015,128.842850 101.324219,129.555344 
M78.718910,113.553535 
	C78.358910,113.241280 77.998909,112.929031 77.638901,112.616776 
	C77.523911,112.894936 77.284447,113.401855 77.312508,113.417122 
	C77.767883,113.664894 78.257172,113.850327 78.718910,113.553535 
z"/>
<path fill="#080808" opacity="1.000000" stroke="none" 
	d="
M360.672913,143.873749 
	C357.471008,144.613632 354.408173,144.947891 351.225861,145.295212 
	C348.685974,136.053604 346.273773,127.276489 343.485687,117.131714 
	C340.873718,127.109093 338.599945,135.794601 336.262299,144.724091 
	C333.254242,144.724091 330.330353,144.724091 326.932831,144.724091 
	C323.829529,131.209427 320.681366,117.499489 317.443726,103.399780 
	C320.307007,103.399780 322.847351,103.399780 325.657043,103.399780 
	C327.734863,112.886719 329.814728,122.383102 331.894592,131.879486 
	C332.189514,131.880295 332.484406,131.881088 332.779297,131.881897 
	C335.248688,122.358093 337.718079,112.834297 340.211029,103.219673 
	C342.546356,103.219673 344.682861,103.219673 347.224792,103.219673 
	C349.743591,112.716316 352.274597,122.259125 354.805634,131.801941 
	C355.105743,131.795242 355.405823,131.788559 355.705933,131.781876 
	C357.816711,122.250183 359.927490,112.718491 362.034607,103.203407 
	C364.737915,103.203407 367.040344,103.203407 369.884430,103.203407 
	C366.824066,116.785622 363.817993,130.126877 360.672913,143.873749 
z"/>
<path fill="#090909" opacity="1.000000" stroke="none" 
	d="
M131.451752,133.344421 
	C131.200150,127.687050 130.440811,122.312714 131.159424,117.143852 
	C132.282364,109.066635 138.367325,103.920784 146.319366,102.850380 
	C154.345474,101.770012 163.737778,104.151451 165.929688,111.457054 
	C164.101608,112.610130 162.188019,113.817139 160.336533,114.984970 
	C158.293564,113.367393 156.613495,111.366020 154.470673,110.464195 
	C147.571136,107.560486 140.530151,111.337067 139.363480,118.709351 
	C138.776016,122.421684 138.819214,126.409576 139.489792,130.107376 
	C140.751251,137.063339 146.851822,140.272751 153.516159,137.892853 
	C157.716278,136.392960 158.505768,133.085724 157.856659,128.718414 
	C154.775360,128.718414 151.838364,128.718414 148.585480,128.718414 
	C148.585480,126.429573 148.585480,124.521210 148.585480,122.262932 
	C154.195572,122.262932 159.945755,122.262932 166.083557,122.262932 
	C166.083557,129.638214 166.083557,137.167892 166.083557,144.860413 
	C163.753784,144.860413 161.448456,144.860413 158.947800,144.860413 
	C158.688309,143.486969 158.429581,142.117630 158.141968,140.595428 
	C147.747391,149.453995 136.242569,146.346161 131.451752,133.344421 
z"/>
<path fill="#060606" opacity="1.000000" stroke="none" 
	d="
M257.955811,129.996536 
	C257.955811,120.873055 257.955811,112.249161 257.955811,102.770615 
	C265.327606,103.136711 272.451416,103.016762 279.430359,103.963966 
	C287.142853,105.010712 291.868805,109.999634 293.181488,117.714485 
	C293.759888,121.113853 294.066711,124.696007 293.670685,128.099030 
	C292.471252,138.406128 286.286438,144.227051 275.891846,144.855042 
	C270.117279,145.203918 264.304321,144.917664 257.955811,144.917664 
	C257.955811,140.016968 257.955811,135.256546 257.955811,129.996536 
M276.507202,110.538551 
	C273.123657,110.364433 269.740143,110.190308 266.361206,110.016418 
	C266.361206,119.735260 266.361206,128.671844 266.361206,137.576553 
	C277.339661,138.999115 282.864685,136.677246 284.728546,129.979279 
	C287.293152,120.763000 284.539795,113.648209 276.507202,110.538551 
z"/>
<path fill="#080808" opacity="1.000000" stroke="none" 
	d="
M214.967285,136.778610 
	C218.468399,126.512985 222.034012,116.677994 225.192734,106.714020 
	C226.232483,103.434204 227.996124,102.629631 231.001343,103.056480 
	C233.819748,103.456795 237.020523,101.732140 238.498535,106.456841 
	C242.503189,119.258446 247.137299,131.863129 251.627380,144.851379 
	C248.471481,144.851379 245.842621,144.851379 242.516525,144.851379 
	C242.990952,133.917847 235.392899,135.353119 228.077072,135.129471 
	C220.475266,134.897079 223.449158,141.952682 220.122467,144.853210 
	C217.810043,144.853210 215.178589,144.853210 212.210037,144.853210 
	C213.154694,142.124115 214.014008,139.641571 214.967285,136.778610 
M229.494598,128.342819 
	C231.957855,128.342819 234.421097,128.342819 237.505264,128.342819 
	C235.579407,122.485939 233.857529,117.249451 231.750610,110.841949 
	C229.854095,116.622711 228.299011,121.006889 227.061722,125.478996 
	C226.851715,126.238060 228.006592,127.374756 229.494598,128.342819 
z"/>
<path fill="#080808" opacity="1.000000" stroke="none" 
	d="
M458.562988,110.444855 
	C459.479919,107.895294 460.225555,105.703064 461.036591,103.318420 
	C464.549835,103.318420 467.967377,103.318420 471.771759,103.318420 
	C476.472504,116.899590 481.223816,130.626846 486.099945,144.714691 
	C483.111511,144.714691 480.405853,144.714691 477.782013,144.714691 
	C474.697571,141.944641 477.592499,134.933121 470.081848,135.166382 
	C459.088745,135.507797 459.078217,135.168350 454.848267,144.840759 
	C452.320953,144.840759 449.717102,144.840759 446.708496,144.840759 
	C450.664001,133.316544 454.527832,122.059364 458.562988,110.444855 
M463.836243,118.342163 
	C462.812439,121.459564 461.788635,124.576965 460.640137,128.073975 
	C464.525513,128.073975 467.937439,128.073975 471.868500,128.073975 
	C470.101379,122.615738 468.408569,117.387062 466.323029,110.945312 
	C465.288605,113.928787 464.655640,115.754356 463.836243,118.342163 
z"/>
<path fill="#080808" opacity="1.000000" stroke="none" 
	d="
M378.896790,124.723259 
	C381.441956,117.306587 383.886292,110.273170 386.344879,103.198746 
	C389.900360,103.198746 393.215424,103.198746 396.977112,103.198746 
	C401.701416,116.846786 406.464966,130.608185 411.245453,144.418579 
	C403.280640,145.810165 403.187134,145.841995 400.683319,138.487534 
	C399.856262,136.058121 398.669006,134.837646 396.050995,135.268890 
	C395.402161,135.375793 394.720734,135.285126 394.054291,135.284637 
	C383.872681,135.277206 383.872681,135.277191 380.246094,144.788269 
	C377.718140,144.788269 375.099976,144.788269 371.958527,144.788269 
	C374.276367,138.116348 376.536163,131.611435 378.896790,124.723259 
M387.930725,128.336395 
	C390.866943,128.336395 393.803192,128.336395 397.253418,128.336395 
	C395.345673,122.525291 393.620178,117.269241 391.570435,111.025650 
	C390.220642,114.901001 389.036438,117.750557 388.257812,120.706924 
	C387.609772,123.167458 387.438110,125.753448 387.930725,128.336395 
z"/>
<path fill="#080808" opacity="1.000000" stroke="none" 
	d="
M191.878265,103.068207 
	C193.971375,103.908409 196.651199,104.369888 197.123352,105.647339 
	C201.892975,118.551834 206.301361,131.589844 210.830200,144.645187 
	C202.614487,145.536163 202.465942,145.584579 200.158569,138.505524 
	C199.325577,135.949860 198.112762,134.912872 195.541870,135.268890 
	C194.888748,135.359360 194.212433,135.282516 193.546768,135.282166 
	C183.515305,135.276947 183.515305,135.276932 179.751465,144.807556 
	C177.235291,144.807556 174.635818,144.807556 171.463440,144.807556 
	C175.693649,132.534073 180.014923,120.564224 183.885315,108.450325 
	C185.190979,104.363731 186.926575,102.079041 191.878265,103.068207 
M188.624283,118.118553 
	C187.596390,121.340691 186.568497,124.562828 185.452148,128.062210 
	C189.423065,128.062210 192.782394,128.062210 196.671143,128.062210 
	C194.843246,122.490395 193.159760,117.358749 191.038162,110.891609 
	C189.991364,114.021194 189.430161,115.699051 188.624283,118.118553 
z"/>
<path fill="#111111" opacity="1.000000" stroke="none" 
	d="
M425.834473,124.993073 
	C425.834473,129.466034 425.834473,133.440063 425.834473,137.946915 
	C432.062317,137.946915 438.109253,137.946915 444.374207,137.946915 
	C444.374207,140.415161 444.374207,142.353806 444.374207,144.664001 
	C435.559387,144.664001 426.704956,144.664001 417.594543,144.664001 
	C417.594543,130.932144 417.594543,117.216820 417.594543,103.273941 
	C420.265472,103.273941 422.707550,103.273941 425.834503,103.273941 
	C425.834503,110.320000 425.834503,117.407074 425.834473,124.993073 
z"/>
<path fill="#020202" opacity="1.000000" stroke="none" 
	d="
M306.949280,103.081024 
	C309.622620,102.857216 311.091095,103.032646 311.052155,106.061493 
	C310.888000,118.824501 310.982727,131.590836 310.982727,144.679321 
	C308.287048,144.679321 305.755280,144.679321 302.775513,144.679321 
	C302.775513,131.573074 302.709412,118.512695 302.934265,105.457321 
	C302.948242,104.645103 305.246124,103.872200 306.949280,103.081024 
z"/>
<path fill="#14130A" opacity="1.000000" stroke="none" 
	d="
M22.276939,131.539764 
	C22.614634,129.507965 23.223715,127.762886 23.649750,125.974213 
	C24.330797,123.114891 23.512930,119.598213 28.095440,118.942894 
	C34.870918,117.973969 38.939251,118.985420 40.869919,123.425751 
	C41.873547,125.733986 41.802288,128.509583 41.875797,131.564789 
	C40.760399,132.399857 39.985786,132.744186 39.211174,133.088516 
	C35.675907,136.818954 31.829805,137.364624 28.037552,133.668671 
	C29.744755,133.042236 31.058081,133.085541 32.327438,132.869965 
	C37.253361,132.033371 38.609238,128.594818 35.867661,123.749039 
	C35.717747,123.263039 35.574791,123.046349 35.431835,122.829651 
	C35.227402,123.136551 35.022964,123.443443 34.536793,123.652504 
	C33.871075,123.452126 33.487095,123.349586 33.054070,123.109985 
	C33.005024,122.972931 32.787666,122.786209 32.586155,122.520538 
	C32.178722,122.171127 31.972799,122.087387 31.537888,121.940155 
	C30.887648,122.261238 30.466393,122.645805 29.989893,123.250603 
	C29.934649,123.470825 29.775972,123.896294 29.554459,124.100616 
	C29.241632,124.890457 29.150320,125.475967 29.084280,126.324341 
	C29.407919,126.746323 29.706285,126.905457 30.008316,127.028954 
	C30.011982,126.993317 29.941273,126.981766 29.954433,127.311676 
	C29.648434,128.426697 29.329273,129.211823 28.934414,130.353806 
	C28.387033,131.558792 27.915350,132.406921 27.443668,133.255051 
	C25.784512,132.772339 24.125353,132.289627 22.276939,131.539764 
z"/>
<path fill="#14130A" opacity="1.000000" stroke="none" 
	d="
M97.550598,123.121574 
	C97.995880,126.081429 98.441170,129.041290 98.878494,132.423096 
	C97.516151,133.266495 95.936340,133.376572 94.847595,134.164886 
	C90.783989,137.107117 87.028954,136.843735 82.948669,133.039734 
	C81.692627,132.284286 80.825478,132.104706 79.958328,131.925125 
	C80.413368,128.921982 80.868408,125.918854 81.734474,122.340370 
	C84.232262,120.226852 86.319023,118.688683 88.405792,117.150513 
	C90.007454,117.843323 91.609123,118.536140 93.672569,119.521851 
	C94.395851,119.984512 94.682480,120.071381 94.994232,120.075356 
	C95.068573,120.228188 95.142914,120.381020 95.567879,120.867676 
	C96.462540,121.841530 97.006569,122.481552 97.550598,123.121574 
M94.464783,131.789001 
	C94.665306,131.506775 94.865829,131.224548 95.226280,130.404358 
	C95.253105,130.032837 95.279938,129.661316 95.634651,128.785538 
	C94.872345,127.785927 94.110039,126.786324 93.454384,125.314354 
	C93.506927,124.729446 93.559471,124.144531 93.612015,123.559624 
	C93.149490,123.623215 92.686966,123.686806 92.084763,123.001167 
	C88.862526,121.764488 86.092361,122.296394 83.843239,125.304138 
	C83.843239,125.304138 83.969749,125.482788 83.697624,125.868347 
	C83.633629,126.010170 83.481316,126.189423 83.522530,126.286674 
	C83.637360,126.557693 83.832458,126.794701 84.058723,127.722359 
	C84.065590,128.175323 84.072456,128.628281 83.912247,129.712357 
	C84.238487,130.416428 84.564720,131.120483 85.442116,132.123260 
	C86.584290,132.456940 87.726471,132.790619 89.238876,133.570862 
	C90.162262,133.390579 91.085648,133.210312 92.630524,133.128830 
	C93.108147,132.765945 93.585777,132.403076 94.014496,131.998322 
	C94.014496,131.998322 94.018135,132.062607 94.464783,131.789001 
z"/>
<path fill="#A4A177" opacity="1.000000" stroke="none" 
	d="
M79.493408,131.947464 
	C80.825478,132.104706 81.692627,132.284286 82.709641,132.759399 
	C68.612350,133.064575 54.365192,133.074234 39.664600,133.086212 
	C39.985786,132.744186 40.760399,132.399857 41.874054,131.996765 
	C54.484890,131.948608 66.756683,131.959198 79.493408,131.947464 
z"/>
<path fill="#E2D836" opacity="1.000000" stroke="none" 
	d="
M110.502625,129.144592 
	C108.430328,128.941330 106.695229,128.565109 104.960136,128.188889 
	C105.033249,127.736015 105.106369,127.283142 105.179489,126.830269 
	C106.586174,126.755302 107.992867,126.680344 110.169968,126.564323 
	C108.816422,125.336891 107.948013,124.549408 107.296707,123.285263 
	C107.623093,122.217323 107.732384,121.626030 107.841675,121.034729 
	C108.774742,120.750755 109.707809,120.466782 110.886353,120.033508 
	C111.034492,122.913353 110.937157,125.942497 110.502625,129.144592 
z"/>
<path fill="#A4A177" opacity="1.000000" stroke="none" 
	d="
M77.115158,110.520813 
	C76.075447,111.108658 74.814064,111.392670 73.173866,111.765274 
	C72.737190,107.742798 75.327202,110.261490 77.115158,110.520813 
z"/>
<path fill="#E2D836" opacity="1.000000" stroke="none" 
	d="
M87.988342,117.096481 
	C86.319023,118.688683 84.232262,120.226852 81.908401,121.969604 
	C81.398163,122.149612 81.125038,122.125031 80.424698,122.050598 
	C79.997467,122.000748 79.957809,121.967148 79.957809,121.967148 
	C80.961395,117.954002 83.936417,116.988487 87.988342,117.096481 
z"/>
<path fill="#E2D836" opacity="1.000000" stroke="none" 
	d="
M97.878021,123.080460 
	C97.006569,122.481552 96.462540,121.841530 95.797516,120.978363 
	C96.490273,120.444023 97.304024,120.132805 98.117783,119.821594 
	C98.146996,120.894173 98.176216,121.966759 97.878021,123.080460 
z"/>
<path fill="#EFEFEF" opacity="1.000000" stroke="none" 
	d="
M107.570290,120.909584 
	C107.732384,121.626030 107.623093,122.217323 107.234489,122.951805 
	C106.554756,123.028549 106.154335,122.962105 105.447075,122.547729 
	C105.063103,121.782280 104.985977,121.364769 104.908852,120.947250 
	C105.705536,120.892975 106.502220,120.838707 107.570290,120.909584 
z"/>
<path fill="#E2D836" opacity="1.000000" stroke="none" 
	d="
M104.596878,120.963531 
	C104.985977,121.364769 105.063103,121.782280 105.142242,122.522141 
	C104.372887,122.723862 103.601517,122.603241 102.830154,122.482620 
	C103.315063,121.981682 103.799980,121.480751 104.596878,120.963531 
z"/>
<path fill="#E2D836" opacity="1.000000" stroke="none" 
	d="
M101.449249,129.304626 
	C102.097015,128.842850 102.619736,128.631805 103.142456,128.420746 
	C103.035828,128.979889 102.929192,129.539032 102.822556,130.098175 
	C102.323105,129.917236 101.823662,129.736298 101.449249,129.304626 
z"/>
<path fill="#E2D836" opacity="1.000000" stroke="none" 
	d="
M78.728851,113.801697 
	C78.257172,113.850327 77.767883,113.664894 77.312508,113.417122 
	C77.284447,113.401855 77.523911,112.894936 77.638901,112.616776 
	C77.998909,112.929031 78.358910,113.241280 78.728851,113.801697 
z"/>
<path fill="#E2D836" opacity="1.000000" stroke="none" 
	d="
M94.994644,119.761414 
	C94.682480,120.071381 94.395851,119.984512 94.001854,119.630981 
	C94.007469,118.899513 94.145584,118.351799 94.523224,116.854195 
	C94.796288,118.355064 94.895668,118.901268 94.994644,119.761414 
z"/>
<path fill="#E2D836" opacity="1.000000" stroke="none" 
	d="
M80.014465,122.020401 
	C79.916290,122.060127 79.801109,122.080200 79.821869,122.033707 
	C79.957809,121.967148 79.997467,122.000748 80.014465,122.020401 
z"/>
<path fill="#F9F9F9" opacity="1.000000" stroke="none" 
	d="
M276.901733,110.656296 
	C284.539795,113.648209 287.293152,120.763000 284.728546,129.979279 
	C282.864685,136.677246 277.339661,138.999115 266.361206,137.576553 
	C266.361206,128.671844 266.361206,119.735260 266.361206,110.016418 
	C269.740143,110.190308 273.123657,110.364433 276.901733,110.656296 
z"/>
<path fill="#F5F5F5" opacity="1.000000" stroke="none" 
	d="
M229.012741,128.339905 
	C228.006592,127.374756 226.851715,126.238060 227.061722,125.478996 
	C228.299011,121.006889 229.854095,116.622711 231.750610,110.841949 
	C233.857529,117.249451 235.579407,122.485939 237.505264,128.342819 
	C234.421097,128.342819 231.957855,128.342819 229.012741,128.339905 
z"/>
<path fill="#F5F5F5" opacity="1.000000" stroke="none" 
	d="
M463.929443,117.961044 
	C464.655640,115.754356 465.288605,113.928787 466.323029,110.945312 
	C468.408569,117.387062 470.101379,122.615738 471.868500,128.073975 
	C467.937439,128.073975 464.525513,128.073975 460.640137,128.073975 
	C461.788635,124.576965 462.812439,121.459564 463.929443,117.961044 
z"/>
<path fill="#F5F5F5" opacity="1.000000" stroke="none" 
	d="
M387.493103,128.310120 
	C387.438110,125.753448 387.609772,123.167458 388.257812,120.706924 
	C389.036438,117.750557 390.220642,114.901001 391.570435,111.025650 
	C393.620178,117.269241 395.345673,122.525291 397.253418,128.336395 
	C393.803192,128.336395 390.866943,128.336395 387.493103,128.310120 
z"/>
<path fill="#EFEFEF" opacity="1.000000" stroke="none" 
	d="
M188.746613,117.747726 
	C189.430161,115.699051 189.991364,114.021194 191.038162,110.891609 
	C193.159760,117.358749 194.843246,122.490395 196.671143,128.062210 
	C192.782394,128.062210 189.423065,128.062210 185.452148,128.062210 
	C186.568497,124.562828 187.596390,121.340691 188.746613,117.747726 
z"/>
<path fill="#3F454A" opacity="1.000000" stroke="none" 
	d="
M35.874619,124.018349 
	C38.609238,128.594818 37.253361,132.033371 32.327438,132.869965 
	C31.058081,133.085541 29.744755,133.042236 28.029129,133.282623 
	C27.606632,133.447403 27.542824,133.335770 27.493244,133.295410 
	C27.915350,132.406921 28.387033,131.558792 29.259499,130.367157 
	C30.092873,130.032745 30.525469,130.041855 30.971821,130.347565 
	C31.228062,130.877411 31.470547,131.110672 31.713030,131.343918 
	C31.472288,130.634659 31.231546,129.925400 30.969543,128.878876 
	C30.612614,128.021652 30.276943,127.501709 29.941273,126.981766 
	C29.941273,126.981766 30.011982,126.993317 29.950649,126.781662 
	C29.612547,126.400497 29.335777,126.230988 29.059008,126.061485 
	C29.150320,125.475967 29.241632,124.890457 29.748405,124.415825 
	C30.918512,125.047890 31.673157,125.569069 32.469055,126.080536 
	C32.510303,126.070831 32.594826,126.077072 32.797058,126.310089 
	C33.589653,125.652527 34.180016,124.761940 35.045414,123.915771 
	C35.505177,123.979568 35.689899,123.998962 35.874619,124.018349 
z"/>
<path fill="#7F8483" opacity="1.000000" stroke="none" 
	d="
M34.770374,123.871361 
	C34.180016,124.761940 33.589653,125.652527 32.960373,125.977051 
	C32.982010,124.689674 33.042561,123.968353 33.103111,123.247040 
	C33.487095,123.349586 33.871075,123.452126 34.511482,123.675186 
	C34.767910,123.795700 34.770374,123.871361 34.770374,123.871361 
z"/>
<path fill="#7F8483" opacity="1.000000" stroke="none" 
	d="
M32.427803,126.090248 
	C31.673157,125.569069 30.918512,125.047890 29.969919,124.211502 
	C29.775972,123.896294 29.934649,123.470825 30.315231,123.155090 
	C31.052835,122.560783 31.409855,122.282219 31.766872,122.003647 
	C31.972799,122.087387 32.178722,122.171127 32.295666,122.865005 
	C32.280392,124.346848 32.354095,125.218552 32.427803,126.090248 
z"/>
<path fill="#7F8483" opacity="1.000000" stroke="none" 
	d="
M29.954433,127.311676 
	C30.276943,127.501709 30.612614,128.021652 30.986050,129.087982 
	C31.023813,129.634369 30.958063,130.050949 30.958063,130.050949 
	C30.525469,130.041855 30.092873,130.032745 29.335196,130.010284 
	C29.329273,129.211823 29.648434,128.426697 29.954433,127.311676 
z"/>
<path fill="#4F5351" opacity="1.000000" stroke="none" 
	d="
M32.469051,126.080536 
	C32.354095,125.218552 32.280392,124.346848 32.497177,123.130676 
	C32.787666,122.786209 33.005024,122.972931 33.054070,123.109985 
	C33.042561,123.968353 32.982010,124.689674 32.758141,125.744034 
	C32.594826,126.077072 32.510303,126.070831 32.469051,126.080536 
z"/>
<path fill="#4F5351" opacity="1.000000" stroke="none" 
	d="
M35.045414,123.915771 
	C34.770374,123.871361 34.767910,123.795700 34.793221,123.773026 
	C35.022964,123.443443 35.227402,123.136551 35.431835,122.829651 
	C35.574791,123.046349 35.717747,123.263039 35.867661,123.749039 
	C35.689899,123.998962 35.505177,123.979568 35.045414,123.915771 
z"/>
<path fill="#4F5351" opacity="1.000000" stroke="none" 
	d="
M31.537888,121.940155 
	C31.409855,122.282219 31.052835,122.560783 30.370476,122.934868 
	C30.466393,122.645805 30.887648,122.261238 31.537888,121.940155 
z"/>
<path fill="#7F8483" opacity="1.000000" stroke="none" 
	d="
M29.084280,126.324341 
	C29.335777,126.230988 29.612547,126.400497 29.946983,126.817299 
	C29.706285,126.905457 29.407919,126.746323 29.084280,126.324341 
z"/>
<path fill="#3F454A" opacity="1.000000" stroke="none" 
	d="
M88.868645,133.124298 
	C87.726471,132.790619 86.584290,132.456940 85.309525,131.745132 
	C85.445000,130.906097 85.713066,130.445190 86.195450,129.945618 
	C86.402084,129.705643 86.394394,129.504333 86.386711,129.303009 
	C86.263809,129.542267 86.140915,129.781509 85.765472,129.915283 
	C85.035057,129.566956 84.557182,129.324112 84.079315,129.081253 
	C84.072456,128.628281 84.065590,128.175323 84.031097,126.992920 
	C83.992233,126.003242 83.980995,125.743019 83.969749,125.482788 
	C83.969749,125.482788 83.843239,125.304138 84.178360,125.227371 
	C85.633331,125.095871 86.753197,125.041138 87.917053,125.305275 
	C88.316895,126.090866 88.672729,126.557587 89.244286,127.028854 
	C89.460014,127.033409 89.890404,127.001740 90.062195,127.238319 
	C90.483917,127.989365 90.733849,128.503830 90.996216,129.000580 
	C91.008652,128.982864 91.031944,128.946350 90.725525,129.113495 
	C90.382484,130.162735 90.345863,131.044846 90.016037,132.055328 
	C89.438110,132.497253 89.153374,132.810776 88.868645,133.124298 
z"/>
<path fill="#5C6264" opacity="1.000000" stroke="none" 
	d="
M89.890404,127.001740 
	C89.890404,127.001740 89.460014,127.033409 89.244637,126.708466 
	C88.643860,125.917816 88.258453,125.452110 87.873055,124.986404 
	C86.753197,125.041138 85.633331,125.095871 84.207283,125.121811 
	C86.092361,122.296394 88.862526,121.764488 92.023788,123.681595 
	C91.678085,125.175438 91.393372,125.988846 90.807739,126.874367 
	C90.301346,126.964905 90.095871,126.983322 89.890404,127.001740 
z"/>
<path fill="#3F454A" opacity="1.000000" stroke="none" 
	d="
M95.306763,129.289795 
	C95.279938,129.661316 95.253105,130.032837 94.902199,130.786133 
	C94.391457,131.466141 94.204796,131.764374 94.018135,132.062607 
	C94.018135,132.062607 94.014496,131.998322 93.715469,131.989136 
	C92.985947,131.974686 92.555435,131.969421 91.797241,131.957047 
	C91.251060,131.952255 91.032570,131.954559 90.895927,131.586777 
	C90.995842,130.459915 91.013893,129.703140 91.031952,128.946350 
	C91.031944,128.946350 91.008652,128.982864 91.361450,129.028381 
	C91.958214,129.063034 92.202171,129.052139 92.804543,129.042374 
	C93.877556,129.125610 94.592163,129.207703 95.306763,129.289795 
z"/>
<path fill="#4F5351" opacity="1.000000" stroke="none" 
	d="
M95.470703,129.037659 
	C94.592163,129.207703 93.877556,129.125610 92.614441,128.648163 
	C92.045433,127.669167 92.024948,127.085487 92.201195,126.339333 
	C92.714523,126.046799 93.031120,125.916756 93.347725,125.786713 
	C94.110039,126.786324 94.872345,127.785927 95.470703,129.037659 
z"/>
<path fill="#3F454A" opacity="1.000000" stroke="none" 
	d="
M93.401054,125.550537 
	C93.031120,125.916756 92.714523,126.046799 91.994980,126.469070 
	C91.592041,126.761299 91.108650,126.802254 91.108658,126.802254 
	C91.393372,125.988846 91.678085,125.175438 92.093628,124.056213 
	C92.686966,123.686806 93.149490,123.623215 93.612015,123.559624 
	C93.559471,124.144531 93.506927,124.729446 93.401054,125.550537 
z"/>
<path fill="#5C6264" opacity="1.000000" stroke="none" 
	d="
M90.814072,131.956848 
	C91.032570,131.954559 91.251060,131.952255 91.766891,132.223663 
	C92.045822,132.674942 92.027428,132.852493 92.009041,133.030045 
	C91.085648,133.210312 90.162262,133.390579 89.053757,133.347580 
	C89.153374,132.810776 89.438110,132.497253 90.143188,132.037598 
	C90.563530,131.891464 90.814072,131.956848 90.814072,131.956848 
z"/>
<path fill="#7F8483" opacity="1.000000" stroke="none" 
	d="
M83.995781,129.396805 
	C84.557182,129.324112 85.035057,129.566956 85.756836,129.905457 
	C86.000740,130.001099 85.981125,129.984283 85.981125,129.984283 
	C85.713066,130.445190 85.445000,130.906097 85.033951,131.595779 
	C84.564720,131.120483 84.238487,130.416428 83.995781,129.396805 
z"/>
<path fill="#4F5351" opacity="1.000000" stroke="none" 
	d="
M92.319778,133.079437 
	C92.027428,132.852493 92.045822,132.674942 92.094574,132.230774 
	C92.555435,131.969421 92.985947,131.974686 93.739929,132.010071 
	C93.585777,132.403076 93.108147,132.765945 92.319778,133.079437 
z"/>
<path fill="#5C6264" opacity="1.000000" stroke="none" 
	d="
M83.833687,125.675568 
	C83.980995,125.743019 83.992233,126.003242 83.999664,126.654305 
	C83.832458,126.794701 83.637360,126.557693 83.522530,126.286674 
	C83.481316,126.189423 83.633629,126.010170 83.833687,125.675568 
z"/>
<path fill="#4F5351" opacity="1.000000" stroke="none" 
	d="
M94.241455,131.925812 
	C94.204796,131.764374 94.391457,131.466141 94.822235,131.055115 
	C94.865829,131.224548 94.665306,131.506775 94.241455,131.925812 
z"/>
<path fill="#A0A5A3" opacity="1.000000" stroke="none" 
	d="
M30.971821,130.347565 
	C30.958063,130.050949 31.023813,129.634369 31.007309,129.425262 
	C31.231546,129.925400 31.472288,130.634659 31.713030,131.343918 
	C31.470547,131.110672 31.228062,130.877411 30.971821,130.347565 
z"/>
<path fill="#7F8483" opacity="1.000000" stroke="none" 
	d="
M90.807732,126.874367 
	C91.108650,126.802254 91.592041,126.761299 91.798256,126.631561 
	C92.024948,127.085487 92.045433,127.669167 92.256027,128.647034 
	C92.202171,129.052139 91.958214,129.063034 91.349022,129.046112 
	C90.733849,128.503830 90.483917,127.989365 90.062195,127.238319 
	C90.095871,126.983322 90.301346,126.964905 90.807732,126.874367 
z"/>
<path fill="#A0A5A3" opacity="1.000000" stroke="none" 
	d="
M90.895927,131.586777 
	C90.814072,131.956848 90.563530,131.891464 90.436386,131.909210 
	C90.345863,131.044846 90.382484,130.162735 90.725533,129.113495 
	C91.013893,129.703140 90.995842,130.459915 90.895927,131.586777 
z"/>
<path fill="#7F8483" opacity="1.000000" stroke="none" 
	d="
M87.917053,125.305275 
	C88.258453,125.452110 88.643860,125.917816 89.028908,126.703918 
	C88.672729,126.557587 88.316895,126.090866 87.917053,125.305275 
z"/>
<path fill="#7F8483" opacity="1.000000" stroke="none" 
	d="
M86.009377,130.010925 
	C86.140915,129.781509 86.263809,129.542267 86.386711,129.303009 
	C86.394394,129.504333 86.402084,129.705643 86.195450,129.945618 
	C85.981125,129.984283 86.000740,130.001099 86.009377,130.010925 
z"/>
</svg>